<svg xmlns="http://www.w3.org/2000/svg" xmlns:xlink="http://www.w3.org/1999/xlink" width="500" zoomAndPan="magnify" viewBox="0 0 375 374.999991" height="500" preserveAspectRatio="xMidYMid meet" version="1.0"><defs><g/><clipPath id="a431e7ff38"><path d="M 63.503906 161 L 86 161 L 86 214 L 63.503906 214 Z M 63.503906 161 " clip-rule="nonzero"/></clipPath><clipPath id="9bfaaa29e0"><path d="M 85 147 L 129.503906 147 L 129.503906 188 L 85 188 Z M 85 147 " clip-rule="nonzero"/></clipPath><clipPath id="e6965d604e"><path d="M 85 187 L 129.503906 187 L 129.503906 228 L 85 228 Z M 85 187 " clip-rule="nonzero"/></clipPath><clipPath id="925c302ab6"><path d="M 0.199219 6 L 8 6 L 8 17 L 0.199219 17 Z M 0.199219 6 " clip-rule="nonzero"/></clipPath><clipPath id="66d2c858f0"><rect x="0" width="90" y="0" height="21"/></clipPath></defs><g clip-path="url(#a431e7ff38)"><path fill="#0d395e" d="M 85.359375 170.773438 L 85.359375 204.175781 L 71.300781 213.136719 C 67.933594 215.28125 63.515625 212.867188 63.515625 208.863281 L 63.515625 166.082031 C 63.515625 162.078125 67.933594 159.667969 71.300781 161.808594 Z M 85.359375 170.773438 " fill-opacity="1" fill-rule="evenodd"/></g><g clip-path="url(#9bfaaa29e0)"><path fill="#0d395e" d="M 126.691406 177.832031 L 121.699219 181.015625 L 111.542969 187.492188 L 105.195312 183.441406 C 105.09375 183.363281 104.96875 183.285156 104.859375 183.203125 L 99.832031 180.007812 L 85.359375 170.773438 L 85.359375 152.171875 C 85.359375 148.175781 89.777344 145.753906 93.144531 147.90625 L 121.664062 166.09375 L 126.691406 169.304688 C 129.808594 171.289062 129.808594 175.84375 126.691406 177.832031 " fill-opacity="1" fill-rule="evenodd"/></g><path fill="#ffffff" d="M 111.542969 187.492188 L 93.144531 199.226562 C 93.03125 199.304688 92.910156 199.371094 92.796875 199.4375 L 85.359375 204.183594 L 85.359375 170.773438 L 99.832031 180.007812 L 104.859375 183.203125 C 104.96875 183.285156 105.09375 183.363281 105.195312 183.441406 Z M 111.542969 187.492188 " fill-opacity="1" fill-rule="evenodd"/><g clip-path="url(#e6965d604e)"><path fill="#0d395e" d="M 126.691406 205.6875 L 121.699219 208.875 L 93.144531 227.085938 C 89.765625 229.238281 85.359375 226.816406 85.359375 222.808594 L 85.359375 204.175781 L 92.796875 199.429688 C 92.910156 199.359375 93.03125 199.292969 93.144531 199.214844 L 111.542969 187.480469 L 121.664062 193.929688 L 126.691406 197.128906 C 129.808594 199.136719 129.808594 203.691406 126.691406 205.6875 " fill-opacity="1" fill-rule="evenodd"/></g><g fill="#0d395e" fill-opacity="1"><g transform="translate(151.879974, 191.015745)"><g><path d="M 7.34375 -13.78125 C 7.34375 -10.582031 8.054688 -8.175781 9.484375 -6.5625 C 10.910156 -4.945312 12.71875 -4.140625 14.90625 -4.140625 C 17.09375 -4.140625 18.875 -4.96875 20.25 -6.625 C 21.632812 -8.289062 22.328125 -10.675781 22.328125 -13.78125 C 22.328125 -16.875 21.640625 -19.25 20.265625 -20.90625 C 18.898438 -22.570312 17.085938 -23.40625 14.828125 -23.40625 C 12.566406 -23.40625 10.753906 -22.578125 9.390625 -20.921875 C 8.023438 -19.273438 7.34375 -16.894531 7.34375 -13.78125 Z M 1.59375 -13.78125 C 1.59375 -18.5 2.820312 -22.09375 5.28125 -24.5625 C 7.75 -27.039062 10.921875 -28.28125 14.796875 -28.28125 C 18.660156 -28.28125 21.835938 -27.054688 24.328125 -24.609375 C 26.828125 -22.171875 28.078125 -18.5625 28.078125 -13.78125 C 28.078125 -9.101562 26.851562 -5.515625 24.40625 -3.015625 C 21.957031 -0.515625 18.769531 0.734375 14.84375 0.734375 C 11.101562 0.734375 7.957031 -0.445312 5.40625 -2.8125 C 2.863281 -5.1875 1.59375 -8.84375 1.59375 -13.78125 Z M 1.59375 -13.78125 "/></g></g></g><g fill="#0d395e" fill-opacity="1"><g transform="translate(181.544923, 191.015745)"><g><path d="M 29.546875 0 L 24.15625 0 L 24.15625 -18.609375 L 24.234375 -23.03125 L 24.09375 -23.03125 L 18.9375 0 L 13.296875 0 L 8.265625 -23.03125 L 8.140625 -23.03125 L 8.1875 -18.609375 L 8.1875 0 L 2.8125 0 L 2.8125 -27.5625 L 11.234375 -27.5625 L 16.203125 -5.828125 L 16.3125 -5.828125 L 21.203125 -27.5625 L 29.546875 -27.5625 Z M 29.546875 0 "/></g></g></g><g fill="#0d395e" fill-opacity="1"><g transform="translate(213.889644, 191.015745)"><g><path d="M 23.078125 -22.6875 L 8.453125 -22.6875 L 8.453125 -16.890625 L 21.890625 -16.890625 L 21.890625 -12.015625 L 8.453125 -12.015625 L 8.453125 -4.875 L 23.734375 -4.875 L 23.734375 0 L 2.8125 0 L 2.8125 -27.5625 L 23.078125 -27.5625 Z M 23.078125 -22.6875 "/></g></g></g><g fill="#0d395e" fill-opacity="1"><g transform="translate(239.300676, 191.015745)"><g><path d="M 15.859375 -14.859375 L 27.375 -14.859375 L 27.375 0 L 23.53125 0 L 22.96875 -3.453125 C 20.84375 -0.660156 17.9375 0.734375 14.25 0.734375 C 10.5625 0.734375 7.546875 -0.578125 5.203125 -3.203125 C 2.859375 -5.835938 1.6875 -9.335938 1.6875 -13.703125 C 1.6875 -18.066406 2.890625 -21.585938 5.296875 -24.265625 C 7.710938 -26.941406 11.003906 -28.28125 15.171875 -28.28125 C 18.722656 -28.28125 21.5625 -27.382812 23.6875 -25.59375 C 25.8125 -23.800781 27 -21.609375 27.25 -19.015625 L 21.515625 -19.015625 C 21.171875 -20.378906 20.441406 -21.472656 19.328125 -22.296875 C 18.222656 -23.117188 16.9375 -23.53125 15.46875 -23.53125 C 13 -23.53125 11.0625 -22.644531 9.65625 -20.875 C 8.25 -19.113281 7.546875 -16.703125 7.546875 -13.640625 C 7.546875 -10.597656 8.222656 -8.253906 9.578125 -6.609375 C 10.941406 -4.960938 12.941406 -4.140625 15.578125 -4.140625 C 17.066406 -4.140625 18.425781 -4.617188 19.65625 -5.578125 C 20.894531 -6.546875 21.765625 -8.09375 22.265625 -10.21875 L 15.859375 -10.21875 Z M 15.859375 -14.859375 "/></g></g></g><g fill="#0d395e" fill-opacity="1"><g transform="translate(269.284194, 191.015745)"><g><path d="M 9.984375 -10.4375 L 17.015625 -10.4375 L 13.59375 -21.34375 L 13.515625 -21.34375 Z M 6.546875 0 L 0.46875 0 L 10.296875 -27.5625 L 16.953125 -27.5625 L 26.65625 0 L 20.390625 0 L 18.640625 -5.6875 L 8.453125 -5.6875 Z M 6.546875 0 "/></g></g></g><g transform="matrix(1, 0, 0, 1, 181, 194)"><g clip-path="url(#66d2c858f0)"><g clip-path="url(#925c302ab6)"><g fill="#0d395e" fill-opacity="1"><g transform="translate(0.318894, 15.81882)"><g><path d="M 5.953125 -6.171875 C 5.929688 -6.679688 5.742188 -7.050781 5.390625 -7.28125 C 5.046875 -7.507812 4.550781 -7.625 3.90625 -7.625 C 3.4375 -7.625 3.03125 -7.519531 2.6875 -7.3125 C 2.351562 -7.101562 2.1875 -6.800781 2.1875 -6.40625 C 2.1875 -6.09375 2.285156 -5.863281 2.484375 -5.71875 C 2.679688 -5.570312 3.113281 -5.414062 3.78125 -5.25 L 5.21875 -4.875 C 6.082031 -4.65625 6.703125 -4.375 7.078125 -4.03125 C 7.453125 -3.695312 7.640625 -3.222656 7.640625 -2.609375 C 7.640625 -1.765625 7.328125 -1.078125 6.703125 -0.546875 C 6.085938 -0.015625 5.257812 0.25 4.21875 0.25 C 3.007812 0.25 2.09375 0 1.46875 -0.5 C 0.851562 -1 0.539062 -1.753906 0.53125 -2.765625 L 1.9375 -2.765625 C 1.957031 -2.171875 2.148438 -1.726562 2.515625 -1.4375 C 2.890625 -1.144531 3.453125 -1 4.203125 -1 C 4.804688 -1 5.285156 -1.117188 5.640625 -1.359375 C 6.003906 -1.609375 6.1875 -1.945312 6.1875 -2.375 C 6.1875 -2.6875 6.070312 -2.929688 5.84375 -3.109375 C 5.613281 -3.296875 5.15625 -3.46875 4.46875 -3.625 L 2.78125 -4.03125 C 2.101562 -4.195312 1.601562 -4.453125 1.28125 -4.796875 C 0.957031 -5.140625 0.796875 -5.582031 0.796875 -6.125 C 0.796875 -6.96875 1.097656 -7.632812 1.703125 -8.125 C 2.304688 -8.625 3.097656 -8.875 4.078125 -8.875 C 5.117188 -8.875 5.914062 -8.617188 6.46875 -8.109375 C 7.03125 -7.609375 7.328125 -6.960938 7.359375 -6.171875 Z M 5.953125 -6.171875 "/></g></g></g></g><g fill="#0d395e" fill-opacity="1"><g transform="translate(11.213212, 15.81882)"><g><path d="M 7.015625 -5 C 6.929688 -5.9375 6.679688 -6.597656 6.265625 -6.984375 C 5.847656 -7.378906 5.289062 -7.578125 4.59375 -7.578125 C 3.894531 -7.578125 3.328125 -7.328125 2.890625 -6.828125 C 2.460938 -6.335938 2.234375 -5.726562 2.203125 -5 Z M 8.390625 -2.703125 C 8.234375 -1.816406 7.796875 -1.078125 7.078125 -0.484375 C 6.453125 0.00390625 5.625 0.253906 4.59375 0.265625 C 3.382812 0.253906 2.425781 -0.140625 1.71875 -0.921875 C 1.007812 -1.703125 0.65625 -2.753906 0.65625 -4.078125 C 0.65625 -5.585938 1.019531 -6.765625 1.75 -7.609375 C 2.488281 -8.453125 3.503906 -8.875 4.796875 -8.875 C 5.960938 -8.875 6.875 -8.4375 7.53125 -7.5625 C 8.1875 -6.695312 8.515625 -5.457031 8.515625 -3.84375 L 2.203125 -3.84375 C 2.203125 -2.9375 2.410156 -2.234375 2.828125 -1.734375 C 3.253906 -1.242188 3.882812 -1 4.71875 -1 C 5.3125 -1 5.816406 -1.175781 6.234375 -1.53125 C 6.660156 -1.894531 6.894531 -2.285156 6.9375 -2.703125 Z M 8.390625 -2.703125 "/></g></g></g><g fill="#0d395e" fill-opacity="1"><g transform="translate(23.002126, 15.81882)"><g><path d="M 6.328125 -4.40625 C 6.222656 -4.289062 6.015625 -4.195312 5.703125 -4.125 C 5.390625 -4.0625 4.800781 -3.972656 3.9375 -3.859375 C 3.300781 -3.785156 2.832031 -3.628906 2.53125 -3.390625 C 2.238281 -3.148438 2.09375 -2.835938 2.09375 -2.453125 C 2.09375 -1.984375 2.21875 -1.613281 2.46875 -1.34375 C 2.726562 -1.082031 3.132812 -0.953125 3.6875 -0.953125 C 4.375 -0.953125 4.984375 -1.148438 5.515625 -1.546875 C 6.054688 -1.941406 6.328125 -2.421875 6.328125 -2.984375 Z M 1.015625 -6 C 1.054688 -6.96875 1.375 -7.6875 1.96875 -8.15625 C 2.570312 -8.632812 3.441406 -8.875 4.578125 -8.875 C 5.492188 -8.875 6.257812 -8.664062 6.875 -8.25 C 7.5 -7.84375 7.8125 -7.25 7.8125 -6.46875 L 7.8125 -1.5 C 7.8125 -1.15625 7.960938 -0.984375 8.265625 -0.984375 C 8.390625 -0.984375 8.546875 -1.007812 8.734375 -1.0625 L 8.734375 0 C 8.472656 0.101562 8.203125 0.15625 7.921875 0.15625 C 7.421875 0.15625 7.050781 0.0507812 6.8125 -0.15625 C 6.570312 -0.363281 6.445312 -0.695312 6.4375 -1.15625 C 5.613281 -0.21875 4.570312 0.25 3.3125 0.25 C 2.5 0.25 1.84375 0.0195312 1.34375 -0.4375 C 0.851562 -0.90625 0.609375 -1.507812 0.609375 -2.25 C 0.609375 -3.007812 0.820312 -3.617188 1.25 -4.078125 C 1.6875 -4.546875 2.316406 -4.832031 3.140625 -4.9375 L 5.703125 -5.25 C 6.160156 -5.3125 6.390625 -5.648438 6.390625 -6.265625 C 6.390625 -6.710938 6.21875 -7.054688 5.875 -7.296875 C 5.539062 -7.546875 5.035156 -7.671875 4.359375 -7.671875 C 3.753906 -7.671875 3.285156 -7.535156 2.953125 -7.265625 C 2.628906 -6.992188 2.4375 -6.570312 2.375 -6 Z M 1.015625 -6 "/></g></g></g><g fill="#0d395e" fill-opacity="1"><g transform="translate(34.710447, 15.81882)"><g><path d="M 2.84375 -7.421875 L 2.84375 0 L 1.390625 0 L 1.390625 -7.421875 L 0.203125 -7.421875 L 0.203125 -8.625 L 1.390625 -8.625 L 1.390625 -10.109375 C 1.390625 -10.765625 1.582031 -11.242188 1.96875 -11.546875 C 2.363281 -11.859375 2.921875 -12.015625 3.640625 -12.015625 C 3.878906 -12.015625 4.09375 -12.003906 4.28125 -11.984375 L 4.28125 -10.671875 C 4.113281 -10.691406 3.921875 -10.703125 3.703125 -10.703125 C 3.378906 -10.703125 3.15625 -10.625 3.03125 -10.46875 C 2.90625 -10.3125 2.84375 -10.054688 2.84375 -9.703125 L 2.84375 -8.625 L 4.28125 -8.625 L 4.28125 -7.421875 Z M 2.84375 -7.421875 "/></g></g></g><g fill="#0d395e" fill-opacity="1"><g transform="translate(41.921639, 15.81882)"><g><path d="M 2.09375 -4.328125 C 2.09375 -3.367188 2.3125 -2.578125 2.75 -1.953125 C 3.1875 -1.328125 3.800781 -1.015625 4.59375 -1.015625 C 5.425781 -1.015625 6.054688 -1.335938 6.484375 -1.984375 C 6.910156 -2.640625 7.125 -3.421875 7.125 -4.328125 C 7.125 -5.242188 6.910156 -6.019531 6.484375 -6.65625 C 6.054688 -7.289062 5.425781 -7.609375 4.59375 -7.609375 C 3.832031 -7.609375 3.222656 -7.304688 2.765625 -6.703125 C 2.316406 -6.109375 2.09375 -5.316406 2.09375 -4.328125 Z M 0.609375 -4.328125 C 0.609375 -5.609375 0.960938 -6.6875 1.671875 -7.5625 C 2.390625 -8.4375 3.363281 -8.875 4.59375 -8.875 C 5.851562 -8.875 6.835938 -8.429688 7.546875 -7.546875 C 8.253906 -6.660156 8.609375 -5.585938 8.609375 -4.328125 C 8.609375 -3.054688 8.253906 -1.972656 7.546875 -1.078125 C 6.847656 -0.191406 5.863281 0.25 4.59375 0.25 C 3.375 0.25 2.40625 -0.179688 1.6875 -1.046875 C 0.96875 -1.910156 0.609375 -3.003906 0.609375 -4.328125 Z M 0.609375 -4.328125 "/></g></g></g><g fill="#0d395e" fill-opacity="1"><g transform="translate(53.791147, 15.81882)"><g><path d="M 2.09375 -4.328125 C 2.09375 -3.367188 2.3125 -2.578125 2.75 -1.953125 C 3.1875 -1.328125 3.800781 -1.015625 4.59375 -1.015625 C 5.425781 -1.015625 6.054688 -1.335938 6.484375 -1.984375 C 6.910156 -2.640625 7.125 -3.421875 7.125 -4.328125 C 7.125 -5.242188 6.910156 -6.019531 6.484375 -6.65625 C 6.054688 -7.289062 5.425781 -7.609375 4.59375 -7.609375 C 3.832031 -7.609375 3.222656 -7.304688 2.765625 -6.703125 C 2.316406 -6.109375 2.09375 -5.316406 2.09375 -4.328125 Z M 0.609375 -4.328125 C 0.609375 -5.609375 0.960938 -6.6875 1.671875 -7.5625 C 2.390625 -8.4375 3.363281 -8.875 4.59375 -8.875 C 5.851562 -8.875 6.835938 -8.429688 7.546875 -7.546875 C 8.253906 -6.660156 8.609375 -5.585938 8.609375 -4.328125 C 8.609375 -3.054688 8.253906 -1.972656 7.546875 -1.078125 C 6.847656 -0.191406 5.863281 0.25 4.59375 0.25 C 3.375 0.25 2.40625 -0.179688 1.6875 -1.046875 C 0.96875 -1.910156 0.609375 -3.003906 0.609375 -4.328125 Z M 0.609375 -4.328125 "/></g></g></g><g fill="#0d395e" fill-opacity="1"><g transform="translate(65.660655, 15.81882)"><g><path d="M 2.15625 -4.34375 C 2.15625 -3.269531 2.367188 -2.441406 2.796875 -1.859375 C 3.222656 -1.285156 3.785156 -1 4.484375 -1 C 5.160156 -1 5.722656 -1.242188 6.171875 -1.734375 C 6.617188 -2.234375 6.84375 -2.957031 6.84375 -3.90625 C 6.84375 -5.125 6.648438 -6.039062 6.265625 -6.65625 C 5.890625 -7.269531 5.304688 -7.578125 4.515625 -7.578125 C 3.773438 -7.578125 3.195312 -7.332031 2.78125 -6.84375 C 2.363281 -6.351562 2.15625 -5.519531 2.15625 -4.34375 Z M 8.3125 0 L 6.9375 0 L 6.9375 -1.1875 L 6.90625 -1.1875 C 6.363281 -0.226562 5.535156 0.25 4.421875 0.25 C 3.222656 0.25 2.296875 -0.203125 1.640625 -1.109375 C 0.984375 -2.023438 0.65625 -3.175781 0.65625 -4.5625 C 0.65625 -5.84375 0.976562 -6.878906 1.625 -7.671875 C 2.28125 -8.472656 3.15625 -8.875 4.25 -8.875 C 5.332031 -8.875 6.191406 -8.382812 6.828125 -7.40625 L 6.859375 -7.515625 L 6.859375 -11.84375 L 8.3125 -11.84375 Z M 8.3125 0 "/></g></g></g><g fill="#0d395e" fill-opacity="1"><g transform="translate(77.707469, 15.81882)"><g><path d="M 5.953125 -6.171875 C 5.929688 -6.679688 5.742188 -7.050781 5.390625 -7.28125 C 5.046875 -7.507812 4.550781 -7.625 3.90625 -7.625 C 3.4375 -7.625 3.03125 -7.519531 2.6875 -7.3125 C 2.351562 -7.101562 2.1875 -6.800781 2.1875 -6.40625 C 2.1875 -6.09375 2.285156 -5.863281 2.484375 -5.71875 C 2.679688 -5.570312 3.113281 -5.414062 3.78125 -5.25 L 5.21875 -4.875 C 6.082031 -4.65625 6.703125 -4.375 7.078125 -4.03125 C 7.453125 -3.695312 7.640625 -3.222656 7.640625 -2.609375 C 7.640625 -1.765625 7.328125 -1.078125 6.703125 -0.546875 C 6.085938 -0.015625 5.257812 0.25 4.21875 0.25 C 3.007812 0.25 2.09375 0 1.46875 -0.5 C 0.851562 -1 0.539062 -1.753906 0.53125 -2.765625 L 1.9375 -2.765625 C 1.957031 -2.171875 2.148438 -1.726562 2.515625 -1.4375 C 2.890625 -1.144531 3.453125 -1 4.203125 -1 C 4.804688 -1 5.285156 -1.117188 5.640625 -1.359375 C 6.003906 -1.609375 6.1875 -1.945312 6.1875 -2.375 C 6.1875 -2.6875 6.070312 -2.929688 5.84375 -3.109375 C 5.613281 -3.296875 5.15625 -3.46875 4.46875 -3.625 L 2.78125 -4.03125 C 2.101562 -4.195312 1.601562 -4.453125 1.28125 -4.796875 C 0.957031 -5.140625 0.796875 -5.582031 0.796875 -6.125 C 0.796875 -6.96875 1.097656 -7.632812 1.703125 -8.125 C 2.304688 -8.625 3.097656 -8.875 4.078125 -8.875 C 5.117188 -8.875 5.914062 -8.617188 6.46875 -8.109375 C 7.03125 -7.609375 7.328125 -6.960938 7.359375 -6.171875 Z M 5.953125 -6.171875 "/></g></g></g></g></g></svg>